<svg width="16" height="15" viewBox="0 0 16 15" fill="none" xmlns="http://www.w3.org/2000/svg">
<path d="M9.40625 1.24609L15.5938 7.15234C15.7695 7.32812 15.875 7.53906 15.875 7.78516C15.875 7.99609 15.7695 8.20703 15.5938 8.38281L9.40625 14.2891C9.08984 14.6055 8.52734 14.6055 8.21094 14.2539C7.89453 13.9375 7.89453 13.375 8.24609 13.0586L12.9219 8.62891H0.96875C0.476562 8.62891 0.125 8.24219 0.125 7.78516C0.125 7.29297 0.476562 6.94141 0.96875 6.94141H12.9219L8.24609 2.47656C7.89453 2.16016 7.89453 1.59766 8.21094 1.28125C8.52734 0.929688 9.05469 0.929688 9.40625 1.24609Z" fill="#F3AF1A"/>
</svg>
