<svg width="13" height="12" viewBox="0 0 13 12" fill="none" xmlns="http://www.w3.org/2000/svg">
<path d="M7.59375 1.19141L12.4062 5.78516C12.543 5.92188 12.625 6.08594 12.625 6.27734C12.625 6.44141 12.543 6.60547 12.4062 6.74219L7.59375 11.3359C7.34766 11.582 6.91016 11.582 6.66406 11.3086C6.41797 11.0625 6.41797 10.625 6.69141 10.3789L10.3281 6.93359H1.03125C0.648438 6.93359 0.375 6.63281 0.375 6.27734C0.375 5.89453 0.648438 5.62109 1.03125 5.62109H10.3281L6.69141 2.14844C6.41797 1.90234 6.41797 1.46484 6.66406 1.21875C6.91016 0.945312 7.32031 0.945312 7.59375 1.19141Z" fill="#333643"/>
</svg>
