<svg width="26" height="27" viewBox="0 0 26 27" fill="none" xmlns="http://www.w3.org/2000/svg">
<path d="M13 26.75C5.78906 26.75 0 20.9609 0 13.75C0 6.58984 5.78906 0.75 13 0.75C20.1602 0.75 26 6.58984 26 13.75C26 20.9609 20.1602 26.75 13 26.75ZM18.7383 11.3633H18.6875C19.1953 10.9062 19.1953 10.1445 18.6875 9.63672C18.2305 9.17969 17.4688 9.17969 17.0117 9.63672L11.375 15.3242L8.98828 12.9375C8.48047 12.4297 7.71875 12.4297 7.26172 12.9375C6.75391 13.3945 6.75391 14.1562 7.26172 14.6133L10.5117 17.8633C10.9688 18.3711 11.7305 18.3711 12.2383 17.8633L18.7383 11.3633Z" fill="#0BC196"/>
</svg>
