<svg width="26" height="26" viewBox="0 0 26 26" fill="none" xmlns="http://www.w3.org/2000/svg">
<path d="M13 26C5.78906 26 0 20.2109 0 13C0 5.83984 5.78906 0 13 0C20.1602 0 26 5.83984 26 13C26 20.2109 20.1602 26 13 26ZM18.7383 10.6133H18.6875C19.1953 10.1562 19.1953 9.39453 18.6875 8.88672C18.2305 8.42969 17.4688 8.42969 17.0117 8.88672L11.375 14.5742L8.98828 12.1875C8.48047 11.6797 7.71875 11.6797 7.26172 12.1875C6.75391 12.6445 6.75391 13.4062 7.26172 13.8633L10.5117 17.1133C10.9688 17.6211 11.7305 17.6211 12.2383 17.1133L18.7383 10.6133Z" fill="#3AA47E"/>
</svg>
