<svg width="26" height="27" viewBox="0 0 26 27" fill="none" xmlns="http://www.w3.org/2000/svg">
<path d="M13 26.75C5.78906 26.75 0 20.9609 0 13.75C0 6.58984 5.78906 0.75 13 0.75C20.1602 0.75 26 6.58984 26 13.75C26 20.9609 20.1602 26.75 13 26.75ZM8.88672 9.63672C8.37891 10.1445 8.37891 10.9062 8.88672 11.3633L11.2734 13.75L8.88672 16.1367C8.37891 16.6445 8.37891 17.4062 8.88672 17.8633C9.34375 18.3711 10.1055 18.3711 10.5625 17.8633L12.9492 15.4766L15.3359 17.8633C15.8438 18.3711 16.6055 18.3711 17.0625 17.8633C17.5703 17.4062 17.5703 16.6445 17.0625 16.1367L14.6758 13.75L17.0625 11.3633C17.5703 10.9062 17.5703 10.1445 17.0625 9.63672C16.6055 9.17969 15.8438 9.17969 15.3359 9.63672L12.9492 12.0234L10.5625 9.63672C10.1055 9.17969 9.34375 9.17969 8.88672 9.63672Z" fill="#757575"/>
</svg>
