<svg width="70" height="70" viewBox="0 0 70 70" fill="none" xmlns="http://www.w3.org/2000/svg">
<path d="M13.5038 10.3945V0L1.05859 12.4452H11.453C12.5856 12.4452 13.5038 11.5272 13.5038 10.3945Z" fill="#91D5FC"/>
<path d="M31.454 35.6881H8.57375C7.44117 35.6881 6.52297 34.7699 6.52297 33.6373C6.52297 32.5047 7.44117 31.5865 8.57375 31.5865H31.7231C31.9587 30.1658 32.3381 28.7932 32.8469 27.4844H8.57375C7.44117 27.4844 6.52297 26.5662 6.52297 25.4337C6.52297 24.3011 7.44117 23.3829 8.57375 23.3829H34.9955C38.7271 17.8607 45.0384 14.2188 52.1858 14.1995V2.05078C52.1858 0.918203 51.2676 0 50.135 0H17.6054V14.496C17.6054 15.6286 16.6872 16.5468 15.5546 16.5468H1.05859V67.9492C1.05859 69.0818 1.9768 70 3.10938 70H50.135C51.2676 70 52.1858 69.0818 52.1858 67.9492V55.8004C40.9723 55.7702 31.818 46.8218 31.454 35.6881ZM8.07418 57.6373C8.6942 56.6895 9.965 56.4237 10.9131 57.0438C12.0372 57.7793 12.4314 57.843 13.945 57.8313C15.3014 57.8225 16.0885 56.8116 16.2457 55.8761C16.3577 55.2099 16.2337 54.3245 15.0068 53.8908C13.1668 53.2403 11.2813 52.4951 9.95475 51.4547C8.57512 50.3725 7.94197 48.5125 8.30236 46.6003C8.68053 44.594 10.0558 42.9877 11.9079 42.3648V41.9102C11.9079 40.7776 12.8261 39.8594 13.9587 39.8594C15.0913 39.8594 16.0095 40.7776 16.0095 41.9102V42.2397C17.1377 42.5492 17.9272 43.0683 18.2596 43.3169C19.1667 43.9951 19.3522 45.2802 18.674 46.1873C17.9956 47.0943 16.7104 47.2798 15.8034 46.6015C15.4786 46.3589 14.5797 45.8369 13.2494 46.2379C12.5558 46.4468 12.3725 47.1495 12.3328 47.3599C12.2531 47.7828 12.3522 48.1224 12.486 48.2273C13.3493 48.9044 14.9357 49.5154 16.3737 50.0238C19.205 51.0245 20.7792 53.6497 20.2905 56.556C19.9364 58.6623 18.4049 60.7957 16.0093 61.5989V62.1861C16.0093 63.3187 15.0911 64.2369 13.9586 64.2369C12.826 64.2369 11.9078 63.3187 11.9078 62.1861V61.819C10.8386 61.6559 9.89965 61.2823 8.66754 60.4762C7.7198 59.8562 7.45416 58.5852 8.07418 57.6373Z" fill="#3598F4"/>
<path d="M52.2426 18.3005C43.0343 18.3005 35.543 25.7919 35.543 35.0002C35.543 44.2085 43.0343 51.6998 52.2426 51.6998C61.4509 51.6998 68.9421 44.2085 68.9421 35.0002C68.9421 25.7919 61.4508 18.3005 52.2426 18.3005ZM62.9169 36.0185H61.5381V42.3488C61.5381 43.4814 60.6199 44.3996 59.4873 44.3996H44.9976C43.865 44.3996 42.9468 43.4814 42.9468 42.3488V36.0185H41.568C40.6809 36.0185 39.8943 35.4481 39.6187 34.6048C39.3431 33.7615 39.641 32.8366 40.3568 32.3127L51.0313 24.5005C51.7523 23.9727 52.7322 23.9726 53.4537 24.5005L64.128 32.3127C64.8437 32.8366 65.1416 33.7615 64.866 34.6048C64.5904 35.4481 63.8041 36.0185 62.9169 36.0185Z" fill="#91D5FC"/>
<path d="M46.668 32.7768C46.9078 33.1124 47.0489 33.5234 47.0489 33.9675V40.2978H57.4369V33.9675C57.4369 33.5234 57.578 33.1124 57.8178 32.7766L52.243 28.6965L46.668 32.7768Z" fill="#3598F4"/>
</svg>
