<svg width="70" height="70" viewBox="0 0 70 70" fill="none" xmlns="http://www.w3.org/2000/svg">
<g clip-path="url(#clip0_191_2913)">
<path d="M58.4773 56.2557L50.3054 55.5408C49.1771 55.4421 48.1824 56.2767 48.0837 57.4051C47.985 58.5334 48.8197 59.528 49.9479 59.6267L53.2772 59.9179C48.0088 63.7995 41.6663 65.8984 35 65.8984C17.9625 65.8984 4.10156 52.0375 4.10156 35C4.10156 33.8674 3.18336 32.9492 2.05078 32.9492C0.918203 32.9492 0 33.8674 0 35C0 44.3488 3.64055 53.1381 10.2512 59.7488C16.8619 66.3593 25.6512 70 35 70C42.5991 70 49.8266 67.5918 55.8164 63.1408L55.5408 66.2918C55.4421 67.4201 56.2767 68.4147 57.4051 68.5135C58.5334 68.6122 59.528 67.7775 59.6267 66.6493L60.3416 58.4773C60.4403 57.3491 59.6057 56.3544 58.4773 56.2557Z" fill="#91D5FC"/>
<path d="M59.7488 10.2512C53.138 3.64068 44.3488 0 35 0C27.401 0 20.1735 2.4083 14.1837 6.85904L14.4593 3.70822C14.558 2.57988 13.7234 1.58525 12.595 1.48654C11.4667 1.38783 10.4721 2.2225 10.3734 3.3507L9.65832 11.5227C9.55961 12.651 10.3943 13.6456 11.5226 13.7443L19.6946 14.4592C20.8229 14.5579 21.8175 13.7233 21.9162 12.5951C22.015 11.4669 21.1803 10.4721 20.0521 10.3734L16.725 10.0823C21.9929 6.20088 28.3344 4.10156 35 4.10156C52.0374 4.10156 65.8984 17.9625 65.8984 35C65.8984 36.1326 66.8166 37.0508 67.9492 37.0508C69.0818 37.0508 70 36.1326 70 35C70 25.6512 66.3593 16.8619 59.7488 10.2512Z" fill="#91D5FC"/>
<path d="M37.3645 53.3051C47.4741 51.9993 54.6109 42.7452 53.3051 32.6357C51.9993 22.5262 42.7452 15.3893 32.6357 16.6951C22.5262 18.0009 15.3893 27.255 16.6951 37.3645C18.0011 47.4741 27.255 54.6109 37.3645 53.3051ZM41.9774 40.9915C42.1225 42.1148 41.3295 43.1431 40.2062 43.2881C39.083 43.4332 38.0547 42.6402 37.9096 41.517C37.7646 40.3937 38.5575 39.3654 39.6808 39.2204C40.8042 39.0753 41.8324 39.8683 41.9774 40.9915ZM37.0532 26.6563C37.5785 25.6529 38.8179 25.2653 39.8212 25.7906C40.8246 26.3159 41.2123 27.5552 40.6869 28.5586L32.9469 43.3438C32.4216 44.3473 31.1822 44.7349 30.1789 44.2095C29.1755 43.6842 28.7879 42.4449 29.3132 41.4415L37.0532 26.6563ZM29.7939 26.712C30.9172 26.5669 31.9454 27.3599 32.0905 28.4831C32.2355 29.6064 31.4426 30.6347 30.3193 30.7797C29.196 30.9248 28.1677 30.1318 28.0227 29.0086C27.8776 27.8853 28.6706 26.8572 29.7939 26.712Z" fill="#3598F4"/>
</g>
<defs>
<clipPath id="clip0_191_2913">
<rect width="70" height="70" fill="white"/>
</clipPath>
</defs>
</svg>
