<svg width="70" height="70" viewBox="0 0 70 70" fill="none" xmlns="http://www.w3.org/2000/svg">
<g clip-path="url(#clip0_191_2892)">
<path d="M43.5513 38.0238C42.5323 40.1374 40.4746 41.5752 38.1751 41.8352V45.0539H71.7339L67.6367 29.6088C65.4234 30.596 62.9742 31.1448 60.3995 31.1448C51.4341 31.1448 43.9942 24.4987 42.7454 15.875H30.7715L42.7318 30.8258C44.3556 32.8561 44.6776 35.6804 43.5513 38.0238Z" fill="#91D5FC"/>
<path d="M60.4001 26.6093C67.7479 26.6093 73.7045 20.6527 73.7045 13.3049C73.7045 5.95707 67.7479 0.000488281 60.4001 0.000488281C53.0523 0.000488281 47.0957 5.95707 47.0957 13.3049C47.0957 20.6527 53.0523 26.6093 60.4001 26.6093ZM58.1323 9.67641C58.1323 8.42398 59.1477 7.40861 60.4001 7.40861C61.6525 7.40861 62.6679 8.42398 62.6679 9.67641V16.9333C62.6679 18.1858 61.6525 19.2011 60.4001 19.2011C59.1477 19.2011 58.1323 18.1858 58.1323 16.9333V9.67641Z" fill="#3598F4"/>
<path d="M39.4632 36.0585C39.8411 35.2723 39.7338 34.3395 39.1895 33.6591L19.8377 9.46934C19.4083 8.93263 18.7597 8.61968 18.0718 8.61816H18.0673C17.3809 8.61816 16.7323 8.9281 16.3014 9.46178L-3.2016 33.6516C-3.7489 34.3319 -3.85775 35.2663 -3.4813 36.0539C-3.10485 36.8416 -2.30961 37.3435 -1.43575 37.3435H37.4191C38.2915 37.3435 39.0852 36.8431 39.4632 36.0585ZM20.3351 27.8188C20.3351 29.0712 19.3197 30.0866 18.0673 30.0866C16.8148 30.0866 15.7995 29.0712 15.7995 27.8188V24.1903C15.7995 22.9379 16.8148 21.9226 18.0673 21.9226C19.3197 21.9226 20.3351 22.9379 20.3351 24.1903V27.8188Z" fill="#3598F4"/>
<path d="M14.2871 60.3242H21.8464V70.0001H14.2871V60.3242Z" fill="#3598F4"/>
<path d="M2.49609 67.7325C2.49609 68.9849 3.51146 70.0003 4.76389 70.0003H9.75303V58.0566C9.75303 56.8041 10.7684 55.7888 12.0208 55.7888H24.1157C25.3682 55.7888 26.3835 56.8041 26.3835 58.0566V70.0003H33.6405V41.8796H2.49609V67.7325Z" fill="#91D5FC"/>
<path d="M38.1758 70.0002H70.0761C71.3279 70.0002 72.3439 68.9843 72.3439 67.7324V49.5901H38.1758V70.0002ZM57.9812 54.5792H60.4002C61.6526 54.5792 62.6679 55.5946 62.6679 56.847C62.6679 58.0995 61.6526 59.1148 60.4002 59.1148H57.9812C56.7288 59.1148 55.7134 58.0995 55.7134 56.847C55.7134 55.5946 56.7288 54.5792 57.9812 54.5792ZM45.8863 54.5792H48.3053C49.5577 54.5792 50.5731 55.5946 50.5731 56.847C50.5731 58.0995 49.5577 59.1148 48.3053 59.1148H45.8863C44.6339 59.1148 43.6185 58.0995 43.6185 56.847C43.6185 55.5946 44.6339 54.5792 45.8863 54.5792Z" fill="#3598F4"/>
</g>
<defs>
<clipPath id="clip0_191_2892">
<rect width="70" height="70" fill="white"/>
</clipPath>
</defs>
</svg>
